<?xml version="1.0" encoding="utf-8" standalone="no"?>
<!DOCTYPE svg PUBLIC "-//W3C//DTD SVG 1.1//EN"
  "http://www.w3.org/Graphics/SVG/1.1/DTD/svg11.dtd">
<svg xmlns:xlink="http://www.w3.org/1999/xlink" width="432pt" height="360pt" viewBox="0 0 432 360" xmlns="http://www.w3.org/2000/svg" version="1.1">
 <metadata>
  <rdf:RDF xmlns:dc="http://purl.org/dc/elements/1.1/" xmlns:cc="http://creativecommons.org/ns#" xmlns:rdf="http://www.w3.org/1999/02/22-rdf-syntax-ns#">
   <cc:Work>
    <dc:type rdf:resource="http://purl.org/dc/dcmitype/StillImage"/>
    <dc:date>2023-04-19T00:08:56.555543</dc:date>
    <dc:format>image/svg+xml</dc:format>
    <dc:creator>
     <cc:Agent>
      <dc:title>Matplotlib v3.7.1, https://matplotlib.org/</dc:title>
     </cc:Agent>
    </dc:creator>
   </cc:Work>
  </rdf:RDF>
 </metadata>
 <defs>
  <style type="text/css">*{stroke-linejoin: round; stroke-linecap: butt}</style>
 </defs>
 <g id="figure_1">
  <g id="patch_1">
   <path d="M 0 360 
L 432 360 
L 432 0 
L 0 0 
z
" style="fill: #ffffff"/>
  </g>
  <g id="axes_1">
   <g id="patch_2">
    <path d="M 221.4 70.92 
C 202.805571 70.92 184.506462 75.597392 168.192764 84.520174 
C 151.879067 93.442957 138.068974 106.327705 128.037976 121.984393 
C 118.006978 137.64108 112.073703 155.572384 110.786142 174.122181 
C 109.498582 192.671978 112.897636 211.251047 120.669369 228.14344 
C 128.441103 245.035834 140.338652 259.704975 155.263169 270.796034 
C 170.187686 281.887092 187.665103 289.047769 206.081219 291.616708 
C 224.497335 294.185647 243.267175 292.081249 260.657171 285.497873 
C 278.047167 278.914498 293.504937 268.061262 305.602813 253.940561 
L 255.081125 210.656225 
C 250.241975 216.304505 244.058867 220.645799 237.102868 223.279149 
C 230.14687 225.912499 222.638934 226.754259 215.272488 225.726683 
C 207.906041 224.699108 200.915074 221.834837 194.945268 217.398413 
C 188.975461 212.96199 184.216441 207.094333 181.107748 200.337376 
C 177.999054 193.580419 176.639433 186.148791 177.154457 178.728872 
C 177.669481 171.308953 180.042791 164.136432 184.05519 157.873757 
C 188.06759 151.611082 193.591627 146.457183 200.117106 142.88807 
C 206.642585 139.318957 213.962228 137.448 221.4 137.448 
z
" style="fill: #1f77b4; stroke: #ffffff; stroke-width: 2; stroke-linejoin: miter"/>
   </g>
   <g id="patch_3">
    <path d="M 305.602813 253.940561 
C 312.671027 245.690508 318.488532 236.446265 322.86861 226.504537 
C 327.248687 216.562809 330.143969 206.031108 331.461529 195.24746 
L 265.424612 187.178984 
C 264.897588 191.492443 263.739475 195.705124 261.987444 199.681815 
C 260.235413 203.658506 257.908411 207.356203 255.081125 210.656225 
z
" style="fill: #ff7f0e; stroke: #ffffff; stroke-width: 2; stroke-linejoin: miter"/>
   </g>
   <g id="patch_4">
    <path d="M 331.461529 195.24746 
C 332.58929 186.017238 332.551456 176.681701 331.348921 167.460923 
C 330.146386 158.240146 327.788673 149.207157 324.331364 140.574901 
L 262.572545 165.309961 
C 263.955469 168.762863 264.898554 172.376058 265.379568 176.064369 
C 265.860583 179.752681 265.875716 183.486895 265.424612 187.178984 
z
" style="fill: #2ca02c; stroke: #ffffff; stroke-width: 2; stroke-linejoin: miter"/>
   </g>
   <g id="patch_5">
    <path d="M 324.331364 140.574901 
C 321.131163 132.584599 317.011419 124.99404 312.055424 117.956688 
C 307.099429 110.919336 301.340809 104.482941 294.895992 98.777632 
L 250.798397 148.591053 
C 253.376324 150.873176 255.679772 153.447734 257.66217 156.262675 
C 259.644568 159.077616 261.292465 162.11384 262.572545 165.309961 
z
" style="fill: #d62728; stroke: #ffffff; stroke-width: 2; stroke-linejoin: miter"/>
   </g>
   <g id="patch_6">
    <path d="M 294.895992 98.777632 
C 289.913053 94.366459 284.543083 90.412837 278.851139 86.964664 
C 273.159195 83.51649 267.168355 80.587747 260.951197 78.213914 
L 237.220479 140.365566 
C 239.707342 141.315099 242.103678 142.486596 244.380456 143.865865 
C 246.657233 145.245135 248.805221 146.826584 250.798397 148.591053 
z
" style="fill: #9467bd; stroke: #ffffff; stroke-width: 2; stroke-linejoin: miter"/>
   </g>
   <g id="patch_7">
    <path d="M 260.951197 78.213914 
C 254.649908 75.807959 248.142206 73.981988 241.50907 72.758725 
C 234.875934 71.535461 228.144993 70.92 221.400005 70.92 
L 221.400002 137.448 
C 224.097997 137.448 226.790374 137.694185 229.443628 138.18349 
C 232.096882 138.672795 234.699963 139.403183 237.220479 140.365566 
z
" style="fill: #8c564b; stroke: #ffffff; stroke-width: 2; stroke-linejoin: miter"/>
   </g>
   <g id="matplotlib.axis_1"/>
   <g id="matplotlib.axis_2"/>
   <g id="text_1">
    <!-- CWE-310 -->
    <g transform="translate(73.888806 234.985284) scale(0.08 -0.08)">
     <defs>
      <path id="DejaVuSans-43" d="M 4122 4306 
L 4122 3641 
Q 3803 3938 3442 4084 
Q 3081 4231 2675 4231 
Q 1875 4231 1450 3742 
Q 1025 3253 1025 2328 
Q 1025 1406 1450 917 
Q 1875 428 2675 428 
Q 3081 428 3442 575 
Q 3803 722 4122 1019 
L 4122 359 
Q 3791 134 3420 21 
Q 3050 -91 2638 -91 
Q 1578 -91 968 557 
Q 359 1206 359 2328 
Q 359 3453 968 4101 
Q 1578 4750 2638 4750 
Q 3056 4750 3426 4639 
Q 3797 4528 4122 4306 
z
" transform="scale(0.015625)"/>
      <path id="DejaVuSans-57" d="M 213 4666 
L 850 4666 
L 1831 722 
L 2809 4666 
L 3519 4666 
L 4500 722 
L 5478 4666 
L 6119 4666 
L 4947 0 
L 4153 0 
L 3169 4050 
L 2175 0 
L 1381 0 
L 213 4666 
z
" transform="scale(0.015625)"/>
      <path id="DejaVuSans-45" d="M 628 4666 
L 3578 4666 
L 3578 4134 
L 1259 4134 
L 1259 2753 
L 3481 2753 
L 3481 2222 
L 1259 2222 
L 1259 531 
L 3634 531 
L 3634 0 
L 628 0 
L 628 4666 
z
" transform="scale(0.015625)"/>
      <path id="DejaVuSans-2d" d="M 313 2009 
L 1997 2009 
L 1997 1497 
L 313 1497 
L 313 2009 
z
" transform="scale(0.015625)"/>
      <path id="DejaVuSans-33" d="M 2597 2516 
Q 3050 2419 3304 2112 
Q 3559 1806 3559 1356 
Q 3559 666 3084 287 
Q 2609 -91 1734 -91 
Q 1441 -91 1130 -33 
Q 819 25 488 141 
L 488 750 
Q 750 597 1062 519 
Q 1375 441 1716 441 
Q 2309 441 2620 675 
Q 2931 909 2931 1356 
Q 2931 1769 2642 2001 
Q 2353 2234 1838 2234 
L 1294 2234 
L 1294 2753 
L 1863 2753 
Q 2328 2753 2575 2939 
Q 2822 3125 2822 3475 
Q 2822 3834 2567 4026 
Q 2313 4219 1838 4219 
Q 1578 4219 1281 4162 
Q 984 4106 628 3988 
L 628 4550 
Q 988 4650 1302 4700 
Q 1616 4750 1894 4750 
Q 2613 4750 3031 4423 
Q 3450 4097 3450 3541 
Q 3450 3153 3228 2886 
Q 3006 2619 2597 2516 
z
" transform="scale(0.015625)"/>
      <path id="DejaVuSans-31" d="M 794 531 
L 1825 531 
L 1825 4091 
L 703 3866 
L 703 4441 
L 1819 4666 
L 2450 4666 
L 2450 531 
L 3481 531 
L 3481 0 
L 794 0 
L 794 531 
z
" transform="scale(0.015625)"/>
      <path id="DejaVuSans-30" d="M 2034 4250 
Q 1547 4250 1301 3770 
Q 1056 3291 1056 2328 
Q 1056 1369 1301 889 
Q 1547 409 2034 409 
Q 2525 409 2770 889 
Q 3016 1369 3016 2328 
Q 3016 3291 2770 3770 
Q 2525 4250 2034 4250 
z
M 2034 4750 
Q 2819 4750 3233 4129 
Q 3647 3509 3647 2328 
Q 3647 1150 3233 529 
Q 2819 -91 2034 -91 
Q 1250 -91 836 529 
Q 422 1150 422 2328 
Q 422 3509 836 4129 
Q 1250 4750 2034 4750 
z
" transform="scale(0.015625)"/>
     </defs>
     <use xlink:href="#DejaVuSans-43"/>
     <use xlink:href="#DejaVuSans-57" x="69.824219"/>
     <use xlink:href="#DejaVuSans-45" x="168.701172"/>
     <use xlink:href="#DejaVuSans-2d" x="231.884766"/>
     <use xlink:href="#DejaVuSans-33" x="267.96875"/>
     <use xlink:href="#DejaVuSans-31" x="331.591797"/>
     <use xlink:href="#DejaVuSans-30" x="395.214844"/>
    </g>
   </g>
   <g id="text_2">
    <!-- 63.7% -->
    <g transform="translate(148.254747 211.813564) scale(0.08 -0.08)">
     <defs>
      <path id="DejaVuSans-36" d="M 2113 2584 
Q 1688 2584 1439 2293 
Q 1191 2003 1191 1497 
Q 1191 994 1439 701 
Q 1688 409 2113 409 
Q 2538 409 2786 701 
Q 3034 994 3034 1497 
Q 3034 2003 2786 2293 
Q 2538 2584 2113 2584 
z
M 3366 4563 
L 3366 3988 
Q 3128 4100 2886 4159 
Q 2644 4219 2406 4219 
Q 1781 4219 1451 3797 
Q 1122 3375 1075 2522 
Q 1259 2794 1537 2939 
Q 1816 3084 2150 3084 
Q 2853 3084 3261 2657 
Q 3669 2231 3669 1497 
Q 3669 778 3244 343 
Q 2819 -91 2113 -91 
Q 1303 -91 875 529 
Q 447 1150 447 2328 
Q 447 3434 972 4092 
Q 1497 4750 2381 4750 
Q 2619 4750 2861 4703 
Q 3103 4656 3366 4563 
z
" transform="scale(0.015625)"/>
      <path id="DejaVuSans-2e" d="M 684 794 
L 1344 794 
L 1344 0 
L 684 0 
L 684 794 
z
" transform="scale(0.015625)"/>
      <path id="DejaVuSans-37" d="M 525 4666 
L 3525 4666 
L 3525 4397 
L 1831 0 
L 1172 0 
L 2766 4134 
L 525 4134 
L 525 4666 
z
" transform="scale(0.015625)"/>
      <path id="DejaVuSans-25" d="M 4653 2053 
Q 4381 2053 4226 1822 
Q 4072 1591 4072 1178 
Q 4072 772 4226 539 
Q 4381 306 4653 306 
Q 4919 306 5073 539 
Q 5228 772 5228 1178 
Q 5228 1588 5073 1820 
Q 4919 2053 4653 2053 
z
M 4653 2450 
Q 5147 2450 5437 2106 
Q 5728 1763 5728 1178 
Q 5728 594 5436 251 
Q 5144 -91 4653 -91 
Q 4153 -91 3862 251 
Q 3572 594 3572 1178 
Q 3572 1766 3864 2108 
Q 4156 2450 4653 2450 
z
M 1428 4353 
Q 1159 4353 1004 4120 
Q 850 3888 850 3481 
Q 850 3069 1003 2837 
Q 1156 2606 1428 2606 
Q 1700 2606 1854 2837 
Q 2009 3069 2009 3481 
Q 2009 3884 1853 4118 
Q 1697 4353 1428 4353 
z
M 4250 4750 
L 4750 4750 
L 1831 -91 
L 1331 -91 
L 4250 4750 
z
M 1428 4750 
Q 1922 4750 2215 4408 
Q 2509 4066 2509 3481 
Q 2509 2891 2217 2550 
Q 1925 2209 1428 2209 
Q 931 2209 642 2551 
Q 353 2894 353 3481 
Q 353 4063 643 4406 
Q 934 4750 1428 4750 
z
" transform="scale(0.015625)"/>
     </defs>
     <use xlink:href="#DejaVuSans-36"/>
     <use xlink:href="#DejaVuSans-33" x="63.623047"/>
     <use xlink:href="#DejaVuSans-2e" x="127.246094"/>
     <use xlink:href="#DejaVuSans-37" x="159.033203"/>
     <use xlink:href="#DejaVuSans-25" x="222.65625"/>
    </g>
   </g>
   <g id="text_3">
    <!-- CWE-327 -->
    <g transform="translate(333.015471 233.182491) scale(0.08 -0.08)">
     <defs>
      <path id="DejaVuSans-32" d="M 1228 531 
L 3431 531 
L 3431 0 
L 469 0 
L 469 531 
Q 828 903 1448 1529 
Q 2069 2156 2228 2338 
Q 2531 2678 2651 2914 
Q 2772 3150 2772 3378 
Q 2772 3750 2511 3984 
Q 2250 4219 1831 4219 
Q 1534 4219 1204 4116 
Q 875 4013 500 3803 
L 500 4441 
Q 881 4594 1212 4672 
Q 1544 4750 1819 4750 
Q 2544 4750 2975 4387 
Q 3406 4025 3406 3419 
Q 3406 3131 3298 2873 
Q 3191 2616 2906 2266 
Q 2828 2175 2409 1742 
Q 1991 1309 1228 531 
z
" transform="scale(0.015625)"/>
     </defs>
     <use xlink:href="#DejaVuSans-43"/>
     <use xlink:href="#DejaVuSans-57" x="69.824219"/>
     <use xlink:href="#DejaVuSans-45" x="168.701172"/>
     <use xlink:href="#DejaVuSans-2d" x="231.884766"/>
     <use xlink:href="#DejaVuSans-33" x="267.96875"/>
     <use xlink:href="#DejaVuSans-32" x="331.591797"/>
     <use xlink:href="#DejaVuSans-37" x="395.214844"/>
    </g>
   </g>
   <g id="text_4">
    <!-- 9.3% -->
    <g transform="translate(272.119291 210.830222) scale(0.08 -0.08)">
     <defs>
      <path id="DejaVuSans-39" d="M 703 97 
L 703 672 
Q 941 559 1184 500 
Q 1428 441 1663 441 
Q 2288 441 2617 861 
Q 2947 1281 2994 2138 
Q 2813 1869 2534 1725 
Q 2256 1581 1919 1581 
Q 1219 1581 811 2004 
Q 403 2428 403 3163 
Q 403 3881 828 4315 
Q 1253 4750 1959 4750 
Q 2769 4750 3195 4129 
Q 3622 3509 3622 2328 
Q 3622 1225 3098 567 
Q 2575 -91 1691 -91 
Q 1453 -91 1209 -44 
Q 966 3 703 97 
z
M 1959 2075 
Q 2384 2075 2632 2365 
Q 2881 2656 2881 3163 
Q 2881 3666 2632 3958 
Q 2384 4250 1959 4250 
Q 1534 4250 1286 3958 
Q 1038 3666 1038 3163 
Q 1038 2656 1286 2365 
Q 1534 2075 1959 2075 
z
" transform="scale(0.015625)"/>
     </defs>
     <use xlink:href="#DejaVuSans-39"/>
     <use xlink:href="#DejaVuSans-2e" x="63.623047"/>
     <use xlink:href="#DejaVuSans-33" x="95.410156"/>
     <use xlink:href="#DejaVuSans-25" x="159.033203"/>
    </g>
   </g>
   <g id="text_5">
    <!-- CWE-347 -->
    <g transform="translate(342.343813 168.234516) scale(0.08 -0.08)">
     <defs>
      <path id="DejaVuSans-34" d="M 2419 4116 
L 825 1625 
L 2419 1625 
L 2419 4116 
z
M 2253 4666 
L 3047 4666 
L 3047 1625 
L 3713 1625 
L 3713 1100 
L 3047 1100 
L 3047 0 
L 2419 0 
L 2419 1100 
L 313 1100 
L 313 1709 
L 2253 4666 
z
" transform="scale(0.015625)"/>
     </defs>
     <use xlink:href="#DejaVuSans-43"/>
     <use xlink:href="#DejaVuSans-57" x="69.824219"/>
     <use xlink:href="#DejaVuSans-45" x="168.701172"/>
     <use xlink:href="#DejaVuSans-2d" x="231.884766"/>
     <use xlink:href="#DejaVuSans-33" x="267.96875"/>
     <use xlink:href="#DejaVuSans-34" x="331.591797"/>
     <use xlink:href="#DejaVuSans-37" x="395.214844"/>
    </g>
   </g>
   <g id="text_6">
    <!-- 8.0% -->
    <g transform="translate(277.207478 175.404054) scale(0.08 -0.08)">
     <defs>
      <path id="DejaVuSans-38" d="M 2034 2216 
Q 1584 2216 1326 1975 
Q 1069 1734 1069 1313 
Q 1069 891 1326 650 
Q 1584 409 2034 409 
Q 2484 409 2743 651 
Q 3003 894 3003 1313 
Q 3003 1734 2745 1975 
Q 2488 2216 2034 2216 
z
M 1403 2484 
Q 997 2584 770 2862 
Q 544 3141 544 3541 
Q 544 4100 942 4425 
Q 1341 4750 2034 4750 
Q 2731 4750 3128 4425 
Q 3525 4100 3525 3541 
Q 3525 3141 3298 2862 
Q 3072 2584 2669 2484 
Q 3125 2378 3379 2068 
Q 3634 1759 3634 1313 
Q 3634 634 3220 271 
Q 2806 -91 2034 -91 
Q 1263 -91 848 271 
Q 434 634 434 1313 
Q 434 1759 690 2068 
Q 947 2378 1403 2484 
z
M 1172 3481 
Q 1172 3119 1398 2916 
Q 1625 2713 2034 2713 
Q 2441 2713 2670 2916 
Q 2900 3119 2900 3481 
Q 2900 3844 2670 4047 
Q 2441 4250 2034 4250 
Q 1625 4250 1398 4047 
Q 1172 3844 1172 3481 
z
" transform="scale(0.015625)"/>
     </defs>
     <use xlink:href="#DejaVuSans-38"/>
     <use xlink:href="#DejaVuSans-2e" x="63.623047"/>
     <use xlink:href="#DejaVuSans-30" x="95.410156"/>
     <use xlink:href="#DejaVuSans-25" x="159.033203"/>
    </g>
   </g>
   <g id="text_7">
    <!-- CWE-326 -->
    <g transform="translate(321.120966 113.779857) scale(0.08 -0.08)">
     <use xlink:href="#DejaVuSans-43"/>
     <use xlink:href="#DejaVuSans-57" x="69.824219"/>
     <use xlink:href="#DejaVuSans-45" x="168.701172"/>
     <use xlink:href="#DejaVuSans-2d" x="231.884766"/>
     <use xlink:href="#DejaVuSans-33" x="267.96875"/>
     <use xlink:href="#DejaVuSans-32" x="331.591797"/>
     <use xlink:href="#DejaVuSans-36" x="395.214844"/>
    </g>
   </g>
   <g id="text_8">
    <!-- 7.4% -->
    <g transform="translate(265.631379 145.701513) scale(0.08 -0.08)">
     <use xlink:href="#DejaVuSans-37"/>
     <use xlink:href="#DejaVuSans-2e" x="63.623047"/>
     <use xlink:href="#DejaVuSans-34" x="95.410156"/>
     <use xlink:href="#DejaVuSans-25" x="159.033203"/>
    </g>
   </g>
   <g id="text_9">
    <!-- CWE-330 -->
    <g transform="translate(284.596253 79.68863) scale(0.08 -0.08)">
     <use xlink:href="#DejaVuSans-43"/>
     <use xlink:href="#DejaVuSans-57" x="69.824219"/>
     <use xlink:href="#DejaVuSans-45" x="168.701172"/>
     <use xlink:href="#DejaVuSans-2d" x="231.884766"/>
     <use xlink:href="#DejaVuSans-33" x="267.96875"/>
     <use xlink:href="#DejaVuSans-33" x="331.591797"/>
     <use xlink:href="#DejaVuSans-30" x="395.214844"/>
    </g>
   </g>
   <g id="text_10">
    <!-- 5.7% -->
    <g transform="translate(245.708808 127.106298) scale(0.08 -0.08)">
     <defs>
      <path id="DejaVuSans-35" d="M 691 4666 
L 3169 4666 
L 3169 4134 
L 1269 4134 
L 1269 2991 
Q 1406 3038 1543 3061 
Q 1681 3084 1819 3084 
Q 2600 3084 3056 2656 
Q 3513 2228 3513 1497 
Q 3513 744 3044 326 
Q 2575 -91 1722 -91 
Q 1428 -91 1123 -41 
Q 819 9 494 109 
L 494 744 
Q 775 591 1075 516 
Q 1375 441 1709 441 
Q 2250 441 2565 725 
Q 2881 1009 2881 1497 
Q 2881 1984 2565 2268 
Q 2250 2553 1709 2553 
Q 1456 2553 1204 2497 
Q 953 2441 691 2322 
L 691 4666 
z
" transform="scale(0.015625)"/>
     </defs>
     <use xlink:href="#DejaVuSans-35"/>
     <use xlink:href="#DejaVuSans-2e" x="63.623047"/>
     <use xlink:href="#DejaVuSans-37" x="95.410156"/>
     <use xlink:href="#DejaVuSans-25" x="159.033203"/>
    </g>
   </g>
   <g id="text_11">
    <!-- Other -->
    <g transform="translate(243.519977 64.062097) scale(0.08 -0.08)">
     <defs>
      <path id="DejaVuSans-4f" d="M 2522 4238 
Q 1834 4238 1429 3725 
Q 1025 3213 1025 2328 
Q 1025 1447 1429 934 
Q 1834 422 2522 422 
Q 3209 422 3611 934 
Q 4013 1447 4013 2328 
Q 4013 3213 3611 3725 
Q 3209 4238 2522 4238 
z
M 2522 4750 
Q 3503 4750 4090 4092 
Q 4678 3434 4678 2328 
Q 4678 1225 4090 567 
Q 3503 -91 2522 -91 
Q 1538 -91 948 565 
Q 359 1222 359 2328 
Q 359 3434 948 4092 
Q 1538 4750 2522 4750 
z
" transform="scale(0.015625)"/>
      <path id="DejaVuSans-74" d="M 1172 4494 
L 1172 3500 
L 2356 3500 
L 2356 3053 
L 1172 3053 
L 1172 1153 
Q 1172 725 1289 603 
Q 1406 481 1766 481 
L 2356 481 
L 2356 0 
L 1766 0 
Q 1100 0 847 248 
Q 594 497 594 1153 
L 594 3053 
L 172 3053 
L 172 3500 
L 594 3500 
L 594 4494 
L 1172 4494 
z
" transform="scale(0.015625)"/>
      <path id="DejaVuSans-68" d="M 3513 2113 
L 3513 0 
L 2938 0 
L 2938 2094 
Q 2938 2591 2744 2837 
Q 2550 3084 2163 3084 
Q 1697 3084 1428 2787 
Q 1159 2491 1159 1978 
L 1159 0 
L 581 0 
L 581 4863 
L 1159 4863 
L 1159 2956 
Q 1366 3272 1645 3428 
Q 1925 3584 2291 3584 
Q 2894 3584 3203 3211 
Q 3513 2838 3513 2113 
z
" transform="scale(0.015625)"/>
      <path id="DejaVuSans-65" d="M 3597 1894 
L 3597 1613 
L 953 1613 
Q 991 1019 1311 708 
Q 1631 397 2203 397 
Q 2534 397 2845 478 
Q 3156 559 3463 722 
L 3463 178 
Q 3153 47 2828 -22 
Q 2503 -91 2169 -91 
Q 1331 -91 842 396 
Q 353 884 353 1716 
Q 353 2575 817 3079 
Q 1281 3584 2069 3584 
Q 2775 3584 3186 3129 
Q 3597 2675 3597 1894 
z
M 3022 2063 
Q 3016 2534 2758 2815 
Q 2500 3097 2075 3097 
Q 1594 3097 1305 2825 
Q 1016 2553 972 2059 
L 3022 2063 
z
" transform="scale(0.015625)"/>
      <path id="DejaVuSans-72" d="M 2631 2963 
Q 2534 3019 2420 3045 
Q 2306 3072 2169 3072 
Q 1681 3072 1420 2755 
Q 1159 2438 1159 1844 
L 1159 0 
L 581 0 
L 581 3500 
L 1159 3500 
L 1159 2956 
Q 1341 3275 1631 3429 
Q 1922 3584 2338 3584 
Q 2397 3584 2469 3576 
Q 2541 3569 2628 3553 
L 2631 2963 
z
" transform="scale(0.015625)"/>
     </defs>
     <use xlink:href="#DejaVuSans-4f"/>
     <use xlink:href="#DejaVuSans-74" x="78.710938"/>
     <use xlink:href="#DejaVuSans-68" x="117.919922"/>
     <use xlink:href="#DejaVuSans-65" x="181.298828"/>
     <use xlink:href="#DejaVuSans-72" x="242.822266"/>
    </g>
   </g>
   <g id="text_12">
    <!-- 5.8% -->
    <g transform="translate(223.303567 118.582735) scale(0.08 -0.08)">
     <use xlink:href="#DejaVuSans-35"/>
     <use xlink:href="#DejaVuSans-2e" x="63.623047"/>
     <use xlink:href="#DejaVuSans-38" x="95.410156"/>
     <use xlink:href="#DejaVuSans-25" x="159.033203"/>
    </g>
   </g>
   <g id="text_13">
    <!-- Crypto CWE - Vuln Info -->
    <g transform="translate(153.327187 37.2) scale(0.12 -0.12)">
     <defs>
      <path id="DejaVuSans-79" d="M 2059 -325 
Q 1816 -950 1584 -1140 
Q 1353 -1331 966 -1331 
L 506 -1331 
L 506 -850 
L 844 -850 
Q 1081 -850 1212 -737 
Q 1344 -625 1503 -206 
L 1606 56 
L 191 3500 
L 800 3500 
L 1894 763 
L 2988 3500 
L 3597 3500 
L 2059 -325 
z
" transform="scale(0.015625)"/>
      <path id="DejaVuSans-70" d="M 1159 525 
L 1159 -1331 
L 581 -1331 
L 581 3500 
L 1159 3500 
L 1159 2969 
Q 1341 3281 1617 3432 
Q 1894 3584 2278 3584 
Q 2916 3584 3314 3078 
Q 3713 2572 3713 1747 
Q 3713 922 3314 415 
Q 2916 -91 2278 -91 
Q 1894 -91 1617 61 
Q 1341 213 1159 525 
z
M 3116 1747 
Q 3116 2381 2855 2742 
Q 2594 3103 2138 3103 
Q 1681 3103 1420 2742 
Q 1159 2381 1159 1747 
Q 1159 1113 1420 752 
Q 1681 391 2138 391 
Q 2594 391 2855 752 
Q 3116 1113 3116 1747 
z
" transform="scale(0.015625)"/>
      <path id="DejaVuSans-6f" d="M 1959 3097 
Q 1497 3097 1228 2736 
Q 959 2375 959 1747 
Q 959 1119 1226 758 
Q 1494 397 1959 397 
Q 2419 397 2687 759 
Q 2956 1122 2956 1747 
Q 2956 2369 2687 2733 
Q 2419 3097 1959 3097 
z
M 1959 3584 
Q 2709 3584 3137 3096 
Q 3566 2609 3566 1747 
Q 3566 888 3137 398 
Q 2709 -91 1959 -91 
Q 1206 -91 779 398 
Q 353 888 353 1747 
Q 353 2609 779 3096 
Q 1206 3584 1959 3584 
z
" transform="scale(0.015625)"/>
      <path id="DejaVuSans-20" transform="scale(0.015625)"/>
      <path id="DejaVuSans-56" d="M 1831 0 
L 50 4666 
L 709 4666 
L 2188 738 
L 3669 4666 
L 4325 4666 
L 2547 0 
L 1831 0 
z
" transform="scale(0.015625)"/>
      <path id="DejaVuSans-75" d="M 544 1381 
L 544 3500 
L 1119 3500 
L 1119 1403 
Q 1119 906 1312 657 
Q 1506 409 1894 409 
Q 2359 409 2629 706 
Q 2900 1003 2900 1516 
L 2900 3500 
L 3475 3500 
L 3475 0 
L 2900 0 
L 2900 538 
Q 2691 219 2414 64 
Q 2138 -91 1772 -91 
Q 1169 -91 856 284 
Q 544 659 544 1381 
z
M 1991 3584 
L 1991 3584 
z
" transform="scale(0.015625)"/>
      <path id="DejaVuSans-6c" d="M 603 4863 
L 1178 4863 
L 1178 0 
L 603 0 
L 603 4863 
z
" transform="scale(0.015625)"/>
      <path id="DejaVuSans-6e" d="M 3513 2113 
L 3513 0 
L 2938 0 
L 2938 2094 
Q 2938 2591 2744 2837 
Q 2550 3084 2163 3084 
Q 1697 3084 1428 2787 
Q 1159 2491 1159 1978 
L 1159 0 
L 581 0 
L 581 3500 
L 1159 3500 
L 1159 2956 
Q 1366 3272 1645 3428 
Q 1925 3584 2291 3584 
Q 2894 3584 3203 3211 
Q 3513 2838 3513 2113 
z
" transform="scale(0.015625)"/>
      <path id="DejaVuSans-49" d="M 628 4666 
L 1259 4666 
L 1259 0 
L 628 0 
L 628 4666 
z
" transform="scale(0.015625)"/>
      <path id="DejaVuSans-66" d="M 2375 4863 
L 2375 4384 
L 1825 4384 
Q 1516 4384 1395 4259 
Q 1275 4134 1275 3809 
L 1275 3500 
L 2222 3500 
L 2222 3053 
L 1275 3053 
L 1275 0 
L 697 0 
L 697 3053 
L 147 3053 
L 147 3500 
L 697 3500 
L 697 3744 
Q 697 4328 969 4595 
Q 1241 4863 1831 4863 
L 2375 4863 
z
" transform="scale(0.015625)"/>
     </defs>
     <use xlink:href="#DejaVuSans-43"/>
     <use xlink:href="#DejaVuSans-72" x="69.824219"/>
     <use xlink:href="#DejaVuSans-79" x="110.9375"/>
     <use xlink:href="#DejaVuSans-70" x="170.117188"/>
     <use xlink:href="#DejaVuSans-74" x="233.59375"/>
     <use xlink:href="#DejaVuSans-6f" x="272.802734"/>
     <use xlink:href="#DejaVuSans-20" x="333.984375"/>
     <use xlink:href="#DejaVuSans-43" x="365.771484"/>
     <use xlink:href="#DejaVuSans-57" x="435.595703"/>
     <use xlink:href="#DejaVuSans-45" x="534.472656"/>
     <use xlink:href="#DejaVuSans-20" x="597.65625"/>
     <use xlink:href="#DejaVuSans-2d" x="629.443359"/>
     <use xlink:href="#DejaVuSans-20" x="665.527344"/>
     <use xlink:href="#DejaVuSans-56" x="697.314453"/>
     <use xlink:href="#DejaVuSans-75" x="758.972656"/>
     <use xlink:href="#DejaVuSans-6c" x="822.351562"/>
     <use xlink:href="#DejaVuSans-6e" x="850.134766"/>
     <use xlink:href="#DejaVuSans-20" x="913.513672"/>
     <use xlink:href="#DejaVuSans-49" x="945.300781"/>
     <use xlink:href="#DejaVuSans-6e" x="974.792969"/>
     <use xlink:href="#DejaVuSans-66" x="1038.171875"/>
     <use xlink:href="#DejaVuSans-6f" x="1073.376953"/>
    </g>
   </g>
  </g>
 </g>
</svg>
